<svg width="251" height="142" viewBox="0 0 251 142" fill="none" xmlns="http://www.w3.org/2000/svg">
<path d="M71.2039 26.5271C51.139 26.5271 22.8427 32.9961 19.2594 55.6906C15.4816 79.6165 24.4735 92.1539 44.2988 106.26C61.7579 118.683 88.1346 120.216 108.714 121.579C141.144 123.726 175.863 126.248 206.908 114.509C227.404 106.758 242.139 92.9231 246.774 71.0089C249.505 58.1002 250.102 39.3837 241.374 28.3927C224.908 7.65768 186.691 5.20411 162.72 3.9425C127.511 2.08937 83.8611 -1.9272 50.3868 11.0125C19.5086 22.9486 -11.4527 72.5278 8.65447 103.806C22.003 124.57 60.2721 129.7 81.8088 131.791C127.637 136.24 169.204 131.661 209.068 107.832C228.571 96.1731 254.301 75.0551 240.49 49.4062C224.458 19.6329 184.39 15.0059 154.374 9.73593C112.208 2.33283 53.9625 -6.5134 26.8203 35.7573C13.6753 56.229 12.5275 86.1745 22.4998 108.224C31.52 128.169 52.6382 132.895 71.2039 139.646" stroke="white" stroke-width="3" stroke-linecap="round"/>
</svg>
