<svg width="345" height="348" viewBox="0 0 345 348" fill="none" xmlns="http://www.w3.org/2000/svg">
    <path
        d="M123.379 340.452C123.562 342.286 124.676 344.627 121.656 343.694C115.257 341.716 108.856 339.467 102.51 337.312C89.6125 332.932 75.6992 324.784 66.1422 315.126C53.0101 301.856 43.814 285.908 33.32 270.654C21.5375 253.527 9.99352 233.112 6.17069 212.405C-3.01331 162.658 -0.575893 104.469 35.1434 65.6165C48.2137 51.3997 60.4369 38.2111 77.1843 28.1343C97.0072 16.207 119.463 12.843 141.866 9.03864C172.79 3.78742 204.054 3.65034 234.559 12.2297C253.635 17.5949 270.356 25.3655 285.008 39.0244C298.503 51.6043 312.554 69.1786 320.717 85.7252C329.433 103.393 336.12 123.576 337.635 143.265C338.117 149.529 340.269 155.709 340.269 162.007C340.269 168.042 339.411 174.852 338.496 180.798C334.713 205.386 329.706 230.677 319.907 253.635C315.13 264.827 308.924 274.742 302.685 285.141C298.186 292.64 294.641 300.777 289.111 307.63C273.651 326.786 252.409 345.156 226.404 340.655C218.021 339.204 220.934 334.448 220.934 326.776C220.934 313.371 218.604 299.909 218.604 286.458C218.604 275.02 220.038 261.281 214.551 250.596C213.569 248.683 210.332 248.235 209.486 246.544C208.66 244.891 213.108 247.423 214.957 247.456C229.101 247.708 238.395 241.626 249.4 233.577C255.045 229.449 259.382 224.506 264.291 219.597C267.405 216.484 270.833 214.225 272.446 209.923C274.688 203.944 277.197 197.512 278.778 191.334C280.21 185.734 279.242 180.8 279.892 175.227C281.206 163.965 285.747 150.978 281.564 139.821C278.899 132.714 277.877 123.676 269.762 120.725C264.849 118.939 263.862 118.039 266.165 114.141C272.452 103.501 274.251 94.7261 273.763 82.5341C273.679 80.4352 268.663 60.8341 266.014 61.9696C251.216 68.3116 236.19 76.0067 222.96 85.8772C219.565 88.4098 217.848 91.4696 215.666 94.9944C214.119 97.493 214.233 96.786 212.728 95.1971C206.602 88.7306 200.068 83.9205 191.049 82.4328C184.662 81.3792 178.048 82.3864 171.7 83.3446C165.12 84.3379 158.501 84.0309 151.946 85.168C149.236 85.6381 126.135 91.0367 126.114 90.6384C125.656 81.9337 124.494 77.1309 115.882 73.3156C106.02 68.9462 94.8868 67.2013 84.1742 66.9334C79.2732 66.8109 74.2582 66.931 74.1452 72.809C73.9044 85.3296 72.328 97.3325 74.1958 109.785C74.7332 113.367 75.8743 118.229 78.2479 121.131C78.5168 121.459 80.1411 123.443 79.9701 123.511C72.2487 126.6 66.4863 139.799 65.4837 147.419C63.8464 159.863 63.2044 172.371 63.2044 184.901C63.2044 202.434 67.3457 216.258 79.5649 229.12C92.499 242.735 116.429 243.221 133.914 245.632C136.624 246.006 139.937 246.719 142.424 247.962C144.567 249.034 139.804 253.559 138.878 254.75C136.078 258.349 135.632 264.782 132.698 267.716C129.434 270.981 119.592 271.979 115.376 273.896C108.82 276.876 102.753 280.92 95.8241 276.226C87.7725 270.772 86.2363 260.605 79.8181 254.041C75.3134 249.433 69.5556 244.282 63.2044 242.695C58.6853 241.565 52.3645 240.297 47.9076 241.783C45.3626 242.631 41.2361 243.622 45.375 245.632C51.2238 248.473 58.5721 250.822 62.0901 256.776C66.2009 263.733 70.3611 272.322 73.2841 279.873C76.5518 288.314 83.4486 296.782 91.5693 300.843C98.4939 304.305 105.42 303.302 112.843 302.666C115.436 302.444 128.417 301.566 128.798 304.996C129.536 311.639 129.524 319.811 128.393 326.371C127.27 332.885 128.747 339.642 125.658 345.821C125.322 346.492 111.373 340.026 110.26 339.591C87.8433 330.843 67.5602 320.015 52.4663 300.539C45.0602 290.983 36.0413 280.607 30.8887 269.641C23.9313 254.835 18.1625 240.379 14.6802 224.257C12.6344 214.786 11.6032 205.283 10.3241 195.69C9.26424 187.741 6.71816 179.936 5.96808 171.985C3.92973 150.378 7.04572 128.274 14.8828 108.063C21.7541 90.3418 30.0251 72.2929 41.3229 56.9044C53.0921 40.874 68.0952 32.5827 85.795 24.0822C95.1395 19.5944 103.786 14.563 114.059 12.4323C121.765 10.834 129.538 9.41748 137.257 7.87365C151.637 4.99776 166.232 0.636897 181.02 2.70719C196.168 4.82791 211.038 8.59401 225.492 13.5973C238.509 18.1032 250.405 23.7235 262.671 30.4136C282.818 41.4029 304.265 55.4764 317.121 75.139C324.35 86.1954 332.513 97.8817 335.356 111C340.279 133.724 341.431 157.364 342.244 180.545C342.873 198.476 342.812 217.33 336.723 234.489C330.048 253.302 316.648 267.486 309.878 285.951C302.037 307.334 282.441 318.161 263.785 329.511C257.494 333.339 248.345 338.903 240.992 340.25C237.741 340.845 234.643 342.08 231.368 341.567C221.971 340.093 219.337 328.477 218.401 320.394C216.785 306.44 217.907 291.695 215.463 277.948C214.139 270.501 211.247 259.994 212.931 252.42C214.387 245.864 221.076 243.191 226.607 240.871C230.071 239.418 234.03 238.852 237.345 237.224C242.915 234.49 248.269 230.483 253.148 226.689C269.248 214.167 274.971 197.602 281.867 178.924C287.404 163.931 295.24 134.574 277.613 124.879C273.976 122.879 270.34 121.512 267.077 118.902C267.038 118.871 270.917 111.499 271.129 111C273.629 105.126 275.954 99.1673 276.549 92.7658C277.625 81.2039 277.454 72.4371 273.358 61.5137C271.403 56.2999 269.296 51.6091 263.633 53.3082C253.13 56.4591 244.732 64.4966 236.99 71.796C227.556 80.6909 217.128 88.4109 210.195 99.5531C208.453 102.353 208.674 102.438 207.258 99.7557C205.281 96.0105 201.661 92.2102 198.14 89.9293C188.864 83.9193 176.026 82.4328 165.115 82.4328C158.149 82.4328 140.359 81.8183 135.94 88.8149C131.979 95.0861 129.455 87.7913 127.735 84.0537C121.79 71.1392 105.681 70.0419 93.4941 66.2243C89.3265 64.9188 70.7438 58.4916 67.9657 64.6035C66.0211 68.8815 65.6473 75.775 65.2305 80.4068C64.5264 88.2294 63.654 97.0104 64.3188 104.821C64.8635 111.222 67.1794 117.501 71.0048 122.65C72.0242 124.023 76.7791 126.582 76.7791 128.475C76.7791 130.917 70.6958 137.958 69.5359 139.872C65.7436 146.129 61.8499 152.501 61.4316 160.031C60.6921 173.341 61.651 186.066 64.6227 199.033C69.3234 219.545 85.1993 236.013 104.637 242.492C114.593 245.81 123.134 247.456 133.762 247.456C135.975 247.456 145.875 246.115 143.335 249.381C138.874 255.117 133.153 259.569 128.798 265.285C126.057 268.883 122.09 273.498 117.706 275.01C110.939 277.344 102.265 279.045 95.5201 275.922C87.3338 272.132 85.342 265.515 80.1221 258.701C71.6332 247.618 62.3807 232.927 46.2868 239.048C45.5105 239.343 36.986 243.625 37.8786 244.518C38.4563 245.096 41.2499 244.969 41.9307 245.126C45.0931 245.856 48.1891 247.052 51.1493 248.368C61.0312 252.76 64.8379 261.418 67.7631 271.363C71.3133 283.434 74.7211 292.801 87.3146 297.804C95.1951 300.934 103.494 300.677 111.881 301.299C116.675 301.654 122.318 304.043 127.025 305.351C134.367 307.39 126.397 326.372 125.253 331.234C123.934 336.836 125.363 347.545 117.807 344.454C105.243 339.314 92.8292 334.456 79.6662 330.93C72.7969 329.09 67.9049 327.83 62.7992 322.724C58.7954 318.72 54.7775 314.465 51.4026 309.909C42.9119 298.447 34.3745 288.104 29.5211 274.453C25.9613 264.441 19.5244 255.929 17.1621 245.43C15.8375 239.543 16.263 218.739 9.41239 217.369"
        stroke="rgb(252, 233, 151)" stroke-width="3" stroke-linecap="round" />
</svg>