<svg width="348" height="364" viewBox="0 0 348 364" fill="none" xmlns="http://www.w3.org/2000/svg">
    <path
        d="M6.36486 330.818C6.36486 302.837 6.83482 275.028 8.53008 247.056C9.28816 234.548 9.08076 222.356 8.57017 209.847C7.92127 193.948 9.75955 177.844 10.8557 162.011C11.2117 156.868 10.2846 152.67 10.0136 147.657C9.69618 141.784 9.97355 135.816 9.97355 129.934C9.97355 113.989 12.6997 98.265 13.5822 82.3797C14.4026 67.6124 17.1909 52.9691 17.1909 38.1532C17.1909 32.0194 19.8804 26.8322 23.6866 22.0745C29.5464 14.7498 39.4435 12.2888 48.5464 12.5315C63.5331 12.9312 77.7107 16.7362 92.9333 15.0175C106.473 13.4889 119.9 10.5203 133.391 8.56198C150.199 6.12205 167.335 5.31416 184.313 5.31416C204.308 5.31416 224.303 5.31416 244.298 5.31416C258.188 5.31416 272.595 4.86465 286.359 7.1586C301.103 9.61598 315.761 14.2481 325.213 26.2446C330.162 32.5263 335.064 39.284 337.803 46.9344C343.827 63.7616 342.295 80.787 341.933 98.3382C341.486 120.015 340.57 141.719 339.848 163.375C339.27 180.717 340.013 198.11 339.246 215.42C338.08 241.741 339.541 268.342 336.56 294.571C335.461 304.245 336.199 314.309 336.199 324.042C336.199 329.685 334.487 334.358 333.312 339.8C332.461 343.742 331.035 349.413 327.538 351.989C324.952 353.894 319.167 354.732 316.071 355.678C308.095 358.115 299.049 357.45 290.81 358.805C266.68 362.776 240.989 363.907 216.751 360.409C194.967 357.265 173.242 353.068 151.194 352.51C133.421 352.06 115.758 351.959 98.0256 350.465C91.3416 349.902 84.6167 350.017 77.9372 349.222C72.3904 348.562 67.1509 347.418 61.5377 347.418C57.7986 347.418 55.2656 346.385 51.7141 345.654C47.3081 344.747 42.8821 344.709 38.5223 343.488C28.5071 340.684 13.8638 339.662 6.68564 331.179C4.02011 328.029 2.03444 325.56 2.03444 321.315C2.03444 306.792 1.48191 292.786 2.75617 278.211C6.09245 240.053 8.18432 201.143 4.52042 162.934C3.74964 154.896 2.20997 147.259 2.59579 139.156C3.08785 128.823 3.16543 118.95 4.52042 108.603C6.72129 91.7963 7.719 74.4569 11.5774 57.9208C13.3113 50.49 15.6948 43.1448 17.9929 35.8677C19.5145 31.0493 20.948 25.6918 24.0073 21.5934C26.9573 17.6415 30.8754 11.1163 36.0764 10.0455C42.2043 8.78392 48.9233 8.67598 55.1223 9.28371C70.6048 10.8016 86.6878 7.87964 102.115 6.75763C121.179 5.37118 140.212 5.60987 159.293 4.43203C181.475 3.06278 202.907 1.64164 225.132 2.98856C235.874 3.6396 246.637 4.18667 257.369 4.95329C266 5.56974 274.235 5.34808 282.63 7.84024C292.879 10.883 303.039 14.0498 311.299 21.2325C314.488 24.0058 317.913 26.4489 321.043 29.1315C327.356 34.5429 332.92 39.6143 337.482 46.8542C344.014 57.2195 344.86 66.6469 344.86 78.6106C344.86 92.5802 343.416 106.522 343.416 120.552C343.416 134.51 345.267 148.195 344.299 162.172C343.453 174.372 346.213 186.929 345.421 199.141C344.82 208.417 346.54 217.857 345.221 227.088C343.717 237.614 343.129 248.734 342.735 259.366C342.014 278.825 339.326 297.963 337.081 317.265C335.734 328.852 333.156 340.589 325.533 349.984C323.25 352.799 321.467 351.828 318.476 353.272C312.307 356.25 305.106 357.191 298.268 357.482C282.133 358.169 266.684 357.69 250.753 354.635C235.176 351.648 219.179 352.559 203.399 351.588C167.901 349.403 132.178 347.2 96.6222 346.015C83.6189 345.581 70.5394 345.974 57.5281 345.974C44.527 345.974 31.9859 343.076 19.5967 339.479C13.4941 337.707 6.32833 335.637 3.19724 329.374C-0.000621676 322.979 4.80961 317.745 7.0866 312.053"
        stroke="rgb(252, 233, 151)" stroke-width="3" stroke-linecap="round" />
    <path
        d="M61.2169 60.8879C53.0218 69.5144 40.8145 86.1181 51.9947 97.5362C62.325 108.086 78.2074 109.238 91.7705 105.636C106.499 101.723 116.707 87.081 112.46 72.0348C106.529 51.0194 86.8477 45.9566 69.1561 57.2793C57.4003 64.8029 42.6753 81.8684 54.4406 95.5314C65.2687 108.106 86.7583 108.786 98.7874 97.6164C111.797 85.5362 119.719 59.1844 100.191 49.4203C91.4466 45.0482 79.6536 46.212 71.2411 50.944C62.031 56.1247 56.6652 64.8214 51.8344 73.8792"
        stroke="rgb(252, 233, 151)" stroke-width="3" stroke-linecap="round" />
    <path
        d="M56.1648 301.227C56.1648 315.778 56.6937 272.113 57.7686 257.602C58.5515 247.033 57.6083 236.753 57.6083 226.206C57.6083 220.952 57.167 215.692 57.2073 210.448C57.2327 207.148 58.33 204.008 58.33 200.745C58.33 192.362 59.502 184.2 58.6909 175.765C58.2294 170.966 59.0517 166.329 59.0517 161.53C59.0517 156.954 58.3271 152.968 59.0517 148.379C59.723 144.127 57.675 139.565 62.0991 136.951C68.7879 132.999 78.5675 133.005 86.0768 133.944C92.0786 134.694 98.0943 135.062 104.08 135.949C107.92 136.518 109.573 137.22 109.573 141.482C109.573 154.986 107.748 168.487 107.448 181.98C107.272 189.915 107.459 197.86 107.408 205.797C107.353 214.488 106.088 223.091 105.965 231.779C105.809 242.74 106.386 254.162 105.243 265.02C104.474 272.324 103.959 280.001 103.799 287.353C103.601 296.496 97.3771 300.946 88.9237 302.309C82.2738 303.382 74.9539 303.522 68.2739 302.51C61.0858 301.421 53.1556 299.303 52.2353 291.283C50.4676 275.878 52.5561 259.98 52.5561 244.53C52.5561 236.687 53.0369 228.906 53.2377 221.074C53.4801 211.623 52.2125 202.205 52.917 192.766C53.7011 182.258 53.9996 171.419 53.9996 160.889C53.9996 154.482 53.4869 145.42 57.6484 139.958C61.6749 134.674 68.0226 137.216 73.6469 137.392C80.6346 137.611 87.1062 140.279 94.056 140.279C99.4417 140.279 105.264 140.127 108.852 144.77C114.223 151.721 111.619 166.723 112.099 174.802C113.101 191.627 113.182 208.35 113.182 225.204C113.182 240.294 113.652 255.534 113.142 270.593C112.802 280.611 111.771 290.436 109.974 300.264C109.675 301.904 109.514 306.709 107.729 307.682C104.834 309.261 101.497 309.126 98.3463 308.805C87.7835 307.727 73.4172 309.887 64.3445 303.472C61.007 301.112 57.4566 298.148 56.7261 294.009C56.2829 291.498 56.1954 290.275 53.9996 288.957"
        stroke="rgb(252, 233, 151)" stroke-width="3" stroke-linecap="round" />
    <path
        d="M138.443 301.227C138.348 298.85 137.044 296.992 136.719 294.651C136.114 290.297 137.69 285.519 137.721 281.098C137.834 265.103 139.162 248.771 138.283 232.822C137.496 218.574 137.185 204.151 138.443 189.919C139.707 175.614 139.456 161.1 141.33 146.855C141.783 143.411 141.627 140.171 140.969 136.751C140.737 135.543 140.165 133.547 140.768 132.34C142.893 128.091 155 130.226 158.652 130.014C165.233 129.634 172.163 129.708 178.7 130.175C183.419 130.512 184.401 142.124 184.594 145.692C184.842 150.277 184.872 155.548 183.872 160.047C183.344 162.423 185.592 156.407 186.078 155.436C194.648 138.295 216.595 129.676 234.394 126.967C250.306 124.546 265.523 130.054 277.818 139.958C284.23 145.123 290.053 151.466 293.977 158.804C299.637 169.385 299.818 181.476 300.273 193.126C301.255 218.313 301.055 243.43 300.834 268.588C300.769 275.955 300.312 283.822 299.23 291.122C298.615 295.275 298.439 296.089 295.06 297.778C291.402 299.608 288.342 301.804 284.314 302.831C275.377 305.109 267.271 306.901 258.011 307.562C256.503 307.67 247.57 308.011 247.425 305.557C247.322 303.794 248.739 302.046 249.23 300.385C251.292 293.403 251.542 286.577 252.157 279.374C252.923 270.394 254.207 261.318 253.199 252.309C252.419 245.335 251.985 238.508 251.716 231.499C251.578 227.921 249.637 224.972 248.869 221.515C247.964 217.445 246.931 213.601 245.18 209.807C237.66 193.513 227.841 170.954 206.126 181.017C182.149 192.128 183.191 222.656 183.191 244.931C183.191 252.916 182.943 260.832 183.151 268.829C183.318 275.289 184.118 281.864 183.752 288.316C183.516 292.468 182.962 301.381 179.181 304.475C175.992 307.084 170.087 305.047 166.591 304.515C158.675 303.31 150.221 304.835 142.212 304.835C139.406 304.835 137.351 303.025 135.155 301.628C131.631 299.385 132.127 293.985 131.987 289.879C131.308 269.846 132.949 249.616 133.832 229.614C134.733 209.196 135.77 188.651 138.804 168.427C140.315 158.351 141.095 148.042 143.134 138.074C143.48 136.384 143.756 127.056 145.981 128.01C148.795 129.215 152.144 128.658 155.123 129.132C159.994 129.907 164.266 130.214 169.157 129.453C171.362 129.11 180.764 129.687 181.025 133.222C181.444 138.872 182.095 144.613 183.03 150.223C183.323 151.978 182.28 162.571 184.634 157.601C188.554 149.326 191.87 141.445 198.107 134.585C205.417 126.544 216.388 120.525 227.377 119.509C249.434 117.47 270.832 125.747 285.317 142.484C293.134 151.518 297.73 163.01 298.989 174.882C299.779 182.326 300.01 189.898 300.112 197.377C300.212 204.644 301.395 211.777 301.155 219.069C300.684 233.361 298.269 247.623 296.904 261.852C295.983 271.461 296.477 281.119 295.06 290.681C294.241 296.21 285.727 299.293 281.026 300.184C275.018 301.324 268.168 304.01 262.02 303.632C257.765 303.371 253.63 301.666 249.35 301.227C242.025 300.475 241.396 293.961 242.012 287.674C242.82 279.439 242.198 271.226 241.09 263.055C239.813 253.639 240.411 244.22 238.764 234.827C236.988 224.691 235.811 214.578 234.394 204.394C233.509 198.034 232.255 192.822 227.778 188.154C219.924 179.966 211.507 178.328 201.234 183.423C169.846 198.99 184.946 239.52 183.872 266.904C183.538 275.437 182.29 285.29 179.983 293.528C179.183 296.387 179.766 299.857 177.377 301.948C174.78 304.22 171.355 304.455 168.034 304.675C161.636 305.098 154.743 305.274 148.387 304.394C141.053 303.379 135.895 297.731 129.06 295.453"
        stroke="rgb(252, 233, 151)" stroke-width="3" stroke-linecap="round" />
</svg>