<svg width="499" height="31" viewBox="0 0 499 31" fill="none" xmlns="http://www.w3.org/2000/svg">
<path d="M17.7629 2.74373C107.257 2.74373 196.635 5.88117 286.101 5.88117C339.845 5.88117 393.588 5.88117 447.331 5.88117C460.375 5.88117 473.418 5.88117 486.462 5.88117C491.033 5.88117 504.863 6.3022 491.604 5.09681C472.821 3.38929 453.762 4.45275 434.956 5.09681C397.566 6.37728 360.49 5.13384 323.141 3.44094C274.121 1.21911 224.748 2.74373 175.681 2.74373C138.961 2.74373 102.241 2.74373 65.5217 2.74373C51.0274 2.74373 36.9707 3.5682 22.5562 5.00966C16.0729 5.65799 -3.1194 5.22903 3.12145 7.10129C14.1632 10.4138 28.0414 8.86344 39.3763 9.36722C72.7694 10.8514 105.999 11.6906 139.426 12.3304C213.372 13.7456 287.257 15.9076 361.226 16.9494C385.521 17.2916 409.7 19.8584 433.997 19.9997C444.252 20.0593 475.016 19.9997 464.761 19.9997C428.609 19.9997 392.454 18.4309 356.258 18.4309C305.954 18.4309 255.586 20.4526 205.312 19.9997C202.056 19.9703 188.844 19.123 189.102 19.2153C199.836 23.0489 214.194 22.193 225.357 23.1371C241.208 24.4778 256.96 24.7058 272.854 24.7058C283.515 24.7058 264.902 24.7058 263.181 24.7058C252.885 24.7058 241.532 23.3372 231.545 26.2745C229.558 26.859 224.793 27.8229 227.971 29.412" stroke="white" stroke-width="3" stroke-linecap="round"/>
</svg>
