<?xml version="1.0" standalone="no"?>
<!DOCTYPE svg PUBLIC "-//W3C//DTD SVG 20010904//EN"
 "http://www.w3.org/TR/2001/REC-SVG-20010904/DTD/svg10.dtd">
<svg version="1.0" xmlns="http://www.w3.org/2000/svg"
 width="1234.000000pt" height="1234.000000pt" viewBox="0 0 1234.000000 1234.000000"
 preserveAspectRatio="xMidYMid meet">
<metadata>
Created by potrace 1.14, written by Peter Selinger 2001-2017
</metadata>
<g transform="translate(0.000000,1234.000000) scale(0.100000,-0.100000)"
fill="#000000" stroke="none">
<path d="M6248 11245 c-2 -2 -46 -6 -98 -9 -52 -3 -104 -8 -115 -10 -11 -2
-42 -7 -70 -10 -27 -4 -61 -8 -75 -11 -14 -3 -39 -7 -55 -10 -29 -4 -217 -43
-240 -49 -5 -1 -19 -5 -30 -9 -11 -3 -33 -9 -50 -12 -33 -7 -42 -9 -65 -18 -8
-3 -62 -20 -120 -37 -58 -18 -114 -37 -125 -43 -11 -6 -24 -11 -30 -12 -5 0
-27 -8 -49 -18 -21 -9 -42 -17 -47 -17 -5 0 -17 -4 -27 -10 -9 -5 -39 -19 -67
-30 -27 -12 -63 -27 -80 -35 -16 -7 -52 -23 -80 -35 -90 -39 -321 -158 -389
-199 -36 -23 -71 -41 -76 -41 -6 0 -10 -4 -10 -9 0 -5 -8 -11 -17 -15 -25 -8
-39 -17 -188 -128 -146 -108 -183 -138 -267 -220 -33 -32 -64 -58 -69 -58 -5
0 -9 -3 -9 -8 0 -4 -28 -37 -62 -73 -128 -135 -255 -292 -324 -399 -16 -25
-33 -49 -37 -55 -15 -20 -87 -134 -87 -139 0 -3 -15 -29 -33 -58 -41 -65 -131
-248 -178 -363 -7 -17 -13 -32 -14 -35 -1 -3 -7 -18 -14 -35 -7 -16 -14 -34
-15 -40 -1 -5 -4 -14 -8 -20 -11 -19 -97 -290 -102 -325 -1 -8 -6 -25 -10 -37
-4 -12 -9 -30 -11 -40 -2 -10 -15 -63 -29 -118 -14 -55 -27 -111 -30 -125 -5
-25 -9 -43 -20 -90 -11 -48 -54 -283 -60 -334 -21 -156 -35 -296 -41 -396 -2
-36 -5 -65 -6 -65 -7 0 -19 -428 -25 -890 -4 -358 -9 -540 -14 -540 -1 0 -3
-13 -5 -30 -10 -110 -18 -185 -30 -275 -4 -25 -8 -56 -9 -70 -4 -25 -19 -120
-21 -130 -1 -3 -5 -27 -10 -55 -4 -27 -9 -59 -12 -70 -5 -25 -14 -67 -17 -80
-4 -19 -28 -130 -31 -145 -2 -8 -4 -15 -5 -15 -1 0 -3 -7 -5 -15 -10 -41 -15
-58 -25 -90 -6 -19 -13 -46 -16 -60 -3 -13 -10 -30 -16 -37 -6 -7 -8 -13 -5
-13 4 0 -2 -20 -13 -44 -10 -24 -16 -47 -13 -50 4 -3 1 -6 -5 -6 -7 0 -11 -3
-10 -7 1 -5 -6 -33 -15 -65 -21 -69 -22 -110 -3 -146 31 -58 86 -78 147 -54
31 12 101 80 189 182 36 41 67 77 70 80 3 3 27 29 53 57 46 51 48 52 56 29 5
-12 15 -29 23 -37 7 -8 25 -36 39 -63 62 -114 231 -311 309 -358 19 -12 37
-25 40 -29 16 -23 89 -61 179 -93 130 -46 150 -50 246 -50 90 0 123 6 195 34
47 18 53 19 80 5 31 -16 192 -173 342 -334 87 -92 87 -93 70 -117 -9 -13 -23
-24 -29 -24 -7 0 -13 -4 -13 -8 0 -4 -12 -15 -27 -24 -84 -50 -186 -150 -288
-284 -124 -161 -203 -248 -299 -329 -82 -68 -90 -71 -116 -45 -16 16 -30 21
-53 17 -49 -7 -74 -14 -99 -28 -13 -7 -25 -12 -28 -11 -3 1 -30 -5 -60 -14
-30 -9 -59 -17 -65 -19 -5 -1 -18 -5 -27 -9 -9 -4 -22 -9 -30 -10 -12 -3 -36
-12 -103 -39 -16 -6 -32 -12 -35 -12 -3 0 -24 -8 -45 -17 -69 -29 -229 -90
-247 -93 -48 -10 -89 -46 -114 -102 -9 -21 -27 -38 -51 -48 -153 -67 -325
-159 -355 -188 -7 -8 -16 -13 -19 -13 -25 3 -237 -194 -374 -349 -38 -43 -81
-91 -95 -105 -14 -14 -43 -48 -65 -76 -22 -27 -44 -53 -50 -59 -6 -5 -47 -50
-91 -99 -43 -50 -92 -104 -109 -122 -80 -84 -164 -190 -219 -278 -30 -47 -106
-196 -101 -196 3 0 0 -10 -7 -22 -12 -22 -14 -28 -17 -46 0 -5 -20 -23 -43
-39 -24 -17 -73 -61 -109 -96 -56 -56 -89 -92 -188 -208 -36 -44 -94 -125
-141 -199 -80 -126 -249 -465 -275 -550 -4 -14 -12 -30 -17 -37 -5 -7 -7 -16
-4 -22 3 -5 2 -11 -3 -13 -4 -1 -11 -13 -15 -25 l-7 -22 5139 0 5139 0 -2 27
c-2 15 -12 63 -24 107 -11 44 -22 94 -25 110 -2 17 -5 30 -6 30 -1 0 -3 9 -5
20 -2 11 -9 48 -16 82 -6 35 -10 64 -8 65 1 2 -2 12 -8 23 -6 11 -14 38 -17
60 -4 22 -13 67 -21 100 -8 33 -17 71 -19 85 -3 14 -19 79 -36 145 -28 107
-35 140 -56 235 -3 14 -10 43 -16 65 -5 22 -12 49 -14 60 -11 67 -16 92 -21
105 -8 20 -15 48 -28 115 -3 17 -9 39 -12 50 -7 21 -9 27 -17 60 -2 11 -10 40
-16 65 -6 25 -13 52 -14 60 -1 8 -5 24 -9 35 -3 11 -9 35 -12 54 -3 19 -9 39
-13 45 -3 6 -8 20 -10 31 -5 26 -8 36 -15 55 -3 8 -17 53 -30 100 -14 47 -32
105 -41 130 -10 25 -18 50 -20 55 -2 6 -9 24 -15 40 -7 17 -25 64 -41 105 -34
91 -106 264 -126 304 -8 16 -14 35 -14 43 0 7 -4 13 -9 13 -5 0 -12 11 -15 24
-16 65 -187 411 -250 505 -44 67 -70 101 -151 200 -28 34 -179 182 -211 206
-14 11 -41 32 -59 48 -18 15 -36 27 -40 27 -4 0 -25 13 -48 29 -99 68 -213
126 -322 165 -34 13 -64 31 -70 42 -44 86 -81 116 -155 129 -19 3 -60 11 -90
17 -30 6 -61 11 -67 9 -21 -3 -15 20 15 58 30 40 35 47 76 123 15 29 37 68 48
86 11 17 16 32 11 32 -4 0 -3 4 2 8 6 4 15 18 22 32 42 90 93 201 93 204 0 2
8 21 17 42 9 22 17 41 18 44 4 28 43 100 53 100 24 0 116 43 167 79 66 45 113
98 150 169 17 31 34 60 38 63 5 3 8 9 8 12 0 4 12 34 27 68 l27 61 70 -104
c38 -56 86 -124 107 -149 21 -26 38 -51 38 -55 1 -15 78 -65 108 -68 43 -6 91
19 106 56 14 32 14 66 2 123 -16 71 -47 243 -52 281 -3 23 -7 53 -9 65 -3 13
-7 48 -11 77 -3 29 -8 63 -10 75 -3 12 -7 40 -9 62 -2 22 -6 54 -9 70 -7 44
-23 220 -30 335 -3 36 -5 65 -6 65 0 0 -3 34 -5 75 -13 245 -16 283 -21 291
-3 5 -1 9 5 9 6 0 15 -9 21 -19 5 -11 16 -25 23 -33 7 -7 30 -38 52 -68 21
-30 45 -62 52 -70 7 -8 37 -46 66 -85 28 -38 54 -72 57 -75 3 -3 18 -22 34
-43 62 -83 122 -130 157 -123 65 13 85 31 92 85 2 15 -15 63 -44 120 -26 53
-65 137 -87 186 -51 116 -78 175 -113 253 -16 35 -29 67 -29 71 0 4 -6 21 -14
37 -42 87 -189 481 -200 537 -2 7 -8 32 -15 57 -14 47 -19 69 -27 110 -2 14
-7 31 -10 39 -2 8 -7 30 -10 50 -3 20 -7 43 -10 51 -3 8 -8 33 -11 55 -3 22
-9 47 -14 56 -4 9 -6 19 -3 21 2 3 0 25 -5 49 -8 39 -13 63 -27 154 -13 85
-48 270 -59 314 l-14 54 32 -34 c78 -83 170 -257 228 -432 17 -50 33 -99 36
-107 4 -8 5 -19 4 -24 -1 -4 4 -14 10 -22 6 -8 9 -14 6 -14 -3 0 1 -16 9 -35
8 -19 11 -35 8 -35 -4 0 -2 -6 4 -12 6 -7 10 -15 10 -18 0 -16 16 -67 25 -77
5 -7 7 -13 4 -13 -8 0 26 -97 48 -141 18 -34 61 -78 80 -80 43 -6 56 -5 61 3
3 4 9 6 14 3 11 -7 52 48 58 78 7 34 5 135 -3 202 -4 33 -8 74 -10 90 -2 17
-6 44 -10 60 -4 17 -8 42 -10 56 -1 15 -6 36 -9 47 -4 11 -9 33 -11 48 -6 41
-31 155 -55 249 -12 44 -23 87 -25 95 -2 8 -4 17 -5 20 -1 3 -3 10 -4 15 -1 6
-5 17 -8 25 -15 37 -68 214 -68 226 0 8 -4 14 -10 14 -5 0 -9 3 -8 8 3 11 -64
202 -112 317 -16 40 -32 84 -33 92 0 4 -13 40 -29 78 -16 39 -29 72 -30 75 -1
8 -6 21 -43 124 -42 114 -114 268 -129 278 -6 4 -7 8 -3 8 4 0 -3 15 -17 33
-15 19 -26 37 -26 41 0 4 -9 16 -20 28 -11 12 -20 28 -20 35 0 7 -4 13 -10 13
-5 0 -10 7 -10 15 0 8 -4 15 -8 15 -5 0 -14 11 -20 25 -7 15 -8 25 -2 25 6 0
10 -3 10 -7 0 -5 10 -8 23 -9 12 0 51 -5 87 -10 67 -9 228 -9 290 -1 106 15
185 37 292 82 42 18 79 30 82 27 4 -3 6 0 6 6 0 7 6 12 13 12 13 0 157 83 267
154 48 32 79 62 81 80 9 74 -4 107 -54 133 -31 15 -52 15 -287 -4 -72 -5 -293
-5 -339 1 -20 3 -61 8 -91 12 -30 3 -64 8 -75 11 -11 2 -31 5 -45 8 -25 3
-138 29 -175 39 -5 1 -30 8 -55 15 -25 7 -52 15 -60 18 -8 3 -24 8 -34 10 -11
2 -38 10 -60 17 -120 42 -363 127 -376 133 -8 3 -17 7 -20 8 -3 1 -13 5 -22 9
-9 4 -22 9 -30 10 -7 2 -33 12 -58 23 -25 11 -56 24 -70 28 -14 4 -53 20 -87
36 -34 16 -74 31 -88 35 -14 3 -25 10 -25 15 0 5 -3 8 -7 7 -5 -1 -35 11 -68
27 -33 15 -62 29 -65 30 -10 2 -187 88 -467 226 -156 77 -290 139 -298 139 -8
0 -15 3 -15 8 0 4 -15 12 -32 18 -18 7 -69 26 -113 43 -44 18 -88 34 -97 36
-9 2 -26 9 -37 15 -12 6 -21 8 -21 4 0 -3 -6 -2 -12 4 -7 5 -33 15 -58 22 -25
6 -52 14 -60 17 -8 3 -19 7 -25 8 -5 2 -34 10 -62 18 -29 9 -53 14 -53 11 0
-3 -8 0 -19 5 -10 6 -33 13 -52 16 -19 3 -58 10 -86 16 -29 6 -57 8 -63 4 -5
-3 -10 -2 -10 3 0 5 -6 9 -12 9 -7 0 -53 4 -103 8 -90 8 -292 14 -297 10z"/>
</g>
</svg>
